<mxfile host="app.diagrams.net" modified="2023-05-14T23:42:06.337Z" agent="Mozilla/5.0 (Windows NT 10.0; Win64; x64) AppleWebKit/537.36 (KHTML, like Gecko) Chrome/113.0.0.0 Safari/537.36" etag="UsZl8UgrbOzr20JIJBnz" version="21.3.0" type="github">
  <diagram name="Page-1" id="JvxRL4TesXAg5i9ibXGm">
    <mxGraphModel dx="4045" dy="1978" grid="1" gridSize="10" guides="1" tooltips="1" connect="1" arrows="1" fold="1" page="1" pageScale="1" pageWidth="850" pageHeight="1100" math="0" shadow="0">
      <root>
        <mxCell id="0" />
        <mxCell id="1" parent="0" />
        <mxCell id="FdVzbtgLcjpCN7Xek4ne-181" style="edgeStyle=orthogonalEdgeStyle;rounded=0;orthogonalLoop=1;jettySize=auto;html=1;exitX=0;exitY=0.5;exitDx=0;exitDy=0;" edge="1" parent="1" source="FdVzbtgLcjpCN7Xek4ne-100" target="FdVzbtgLcjpCN7Xek4ne-176">
          <mxGeometry relative="1" as="geometry" />
        </mxCell>
        <mxCell id="FdVzbtgLcjpCN7Xek4ne-100" value="" style="strokeWidth=2;dashed=0;align=center;fontSize=8;shape=rect;fillColor=#fffbc0;strokeColor=#000000;" vertex="1" parent="1">
          <mxGeometry x="-410" y="40" width="190" height="40" as="geometry" />
        </mxCell>
        <mxCell id="FdVzbtgLcjpCN7Xek4ne-102" value="" style="strokeWidth=2;dashed=0;align=center;fontSize=8;shape=rect;fillColor=#fffbc0;strokeColor=#000000;" vertex="1" parent="1">
          <mxGeometry x="-80" y="-11" width="806" height="236" as="geometry" />
        </mxCell>
        <mxCell id="FdVzbtgLcjpCN7Xek4ne-103" value="" style="strokeWidth=2;dashed=0;align=center;fontSize=8;shape=rect;fillColor=#fffbc0;strokeColor=#000000;" vertex="1" parent="1">
          <mxGeometry x="-1070" y="298" width="806" height="252" as="geometry" />
        </mxCell>
        <mxCell id="FdVzbtgLcjpCN7Xek4ne-104" value="" style="strokeWidth=2;dashed=0;align=center;fontSize=8;shape=rect;fillColor=#fffbc0;strokeColor=#000000;" vertex="1" parent="1">
          <mxGeometry x="-70" y="260" width="796" height="256" as="geometry" />
        </mxCell>
        <mxCell id="FdVzbtgLcjpCN7Xek4ne-106" value="Message Broker" style="strokeWidth=2;dashed=0;align=center;fontSize=8;shape=rect;fillColor=#c0f5a9;strokeColor=#000000;" vertex="1" parent="1">
          <mxGeometry x="-164" y="244" width="73" height="44" as="geometry" />
        </mxCell>
        <mxCell id="FdVzbtgLcjpCN7Xek4ne-107" value="" style="edgeStyle=none;endArrow=none;dashed=0;html=1;strokeWidth=2;rounded=0;" edge="1" source="FdVzbtgLcjpCN7Xek4ne-106" target="FdVzbtgLcjpCN7Xek4ne-100" parent="1">
          <mxGeometry relative="1" as="geometry" />
        </mxCell>
        <mxCell id="FdVzbtgLcjpCN7Xek4ne-109" value="" style="edgeStyle=none;endArrow=none;dashed=0;html=1;strokeWidth=2;rounded=0;" edge="1" source="FdVzbtgLcjpCN7Xek4ne-106" target="FdVzbtgLcjpCN7Xek4ne-102" parent="1">
          <mxGeometry relative="1" as="geometry" />
        </mxCell>
        <mxCell id="FdVzbtgLcjpCN7Xek4ne-110" value="" style="edgeStyle=none;endArrow=none;dashed=0;html=1;strokeWidth=2;rounded=0;" edge="1" source="FdVzbtgLcjpCN7Xek4ne-106" target="FdVzbtgLcjpCN7Xek4ne-103" parent="1">
          <mxGeometry relative="1" as="geometry" />
        </mxCell>
        <mxCell id="FdVzbtgLcjpCN7Xek4ne-111" value="" style="edgeStyle=none;endArrow=none;dashed=0;html=1;strokeWidth=2;rounded=0;" edge="1" source="FdVzbtgLcjpCN7Xek4ne-106" target="FdVzbtgLcjpCN7Xek4ne-104" parent="1">
          <mxGeometry relative="1" as="geometry" />
        </mxCell>
        <mxCell id="FdVzbtgLcjpCN7Xek4ne-175" value="" style="edgeStyle=orthogonalEdgeStyle;rounded=0;orthogonalLoop=1;jettySize=auto;html=1;" edge="1" parent="1" source="FdVzbtgLcjpCN7Xek4ne-115" target="FdVzbtgLcjpCN7Xek4ne-170">
          <mxGeometry relative="1" as="geometry" />
        </mxCell>
        <mxCell id="FdVzbtgLcjpCN7Xek4ne-115" value="http request" style="sketch=0;outlineConnect=0;fontColor=#232F3E;gradientColor=none;fillColor=#B0084D;strokeColor=none;dashed=0;verticalLabelPosition=bottom;verticalAlign=top;align=center;html=1;fontSize=12;fontStyle=0;aspect=fixed;pointerEvents=1;shape=mxgraph.aws4.http_notification;" vertex="1" parent="1">
          <mxGeometry x="-40" y="328" width="56" height="56" as="geometry" />
        </mxCell>
        <mxCell id="FdVzbtgLcjpCN7Xek4ne-172" value="" style="edgeStyle=orthogonalEdgeStyle;rounded=0;orthogonalLoop=1;jettySize=auto;html=1;" edge="1" parent="1" source="FdVzbtgLcjpCN7Xek4ne-117" target="FdVzbtgLcjpCN7Xek4ne-119">
          <mxGeometry relative="1" as="geometry" />
        </mxCell>
        <mxCell id="FdVzbtgLcjpCN7Xek4ne-117" value=".Net" style="outlineConnect=0;dashed=0;verticalLabelPosition=bottom;verticalAlign=top;align=center;html=1;shape=mxgraph.aws3.android;fillColor=#115193;gradientColor=none;" vertex="1" parent="1">
          <mxGeometry x="110" y="325" width="60" height="62" as="geometry" />
        </mxCell>
        <mxCell id="FdVzbtgLcjpCN7Xek4ne-118" value="" style="edgeStyle=orthogonalEdgeStyle;rounded=0;orthogonalLoop=1;jettySize=auto;html=1;" edge="1" parent="1" source="FdVzbtgLcjpCN7Xek4ne-119" target="FdVzbtgLcjpCN7Xek4ne-122">
          <mxGeometry relative="1" as="geometry" />
        </mxCell>
        <mxCell id="FdVzbtgLcjpCN7Xek4ne-119" value="Data validation" style="rounded=0;whiteSpace=wrap;html=1;" vertex="1" parent="1">
          <mxGeometry x="194" y="328" width="90" height="56" as="geometry" />
        </mxCell>
        <mxCell id="FdVzbtgLcjpCN7Xek4ne-120" value="" style="edgeStyle=orthogonalEdgeStyle;rounded=0;orthogonalLoop=1;jettySize=auto;html=1;" edge="1" parent="1" source="FdVzbtgLcjpCN7Xek4ne-122" target="FdVzbtgLcjpCN7Xek4ne-131">
          <mxGeometry relative="1" as="geometry" />
        </mxCell>
        <mxCell id="FdVzbtgLcjpCN7Xek4ne-121" value="" style="edgeStyle=orthogonalEdgeStyle;rounded=0;orthogonalLoop=1;jettySize=auto;html=1;exitX=0.996;exitY=0.33;exitDx=0;exitDy=0;exitPerimeter=0;" edge="1" parent="1" source="FdVzbtgLcjpCN7Xek4ne-122" target="FdVzbtgLcjpCN7Xek4ne-131">
          <mxGeometry relative="1" as="geometry">
            <Array as="points">
              <mxPoint x="414" y="356" />
              <mxPoint x="434" y="356" />
              <mxPoint x="434" y="378" />
              <mxPoint x="474" y="378" />
            </Array>
          </mxGeometry>
        </mxCell>
        <mxCell id="FdVzbtgLcjpCN7Xek4ne-122" value="Data processing" style="shape=image;html=1;verticalAlign=top;verticalLabelPosition=bottom;labelBackgroundColor=#ffffff;imageAspect=0;aspect=fixed;image=https://cdn1.iconfinder.com/data/icons/software-engineering-and-video-gaming/512/481_Analysis_data_datum_processing_reporting_Data_Science_Fabrication_Lab-128.png" vertex="1" parent="1">
          <mxGeometry x="314" y="306" width="100" height="100" as="geometry" />
        </mxCell>
        <mxCell id="FdVzbtgLcjpCN7Xek4ne-123" value="" style="edgeStyle=orthogonalEdgeStyle;rounded=0;orthogonalLoop=1;jettySize=auto;html=1;" edge="1" parent="1" source="FdVzbtgLcjpCN7Xek4ne-124" target="FdVzbtgLcjpCN7Xek4ne-133">
          <mxGeometry relative="1" as="geometry" />
        </mxCell>
        <mxCell id="FdVzbtgLcjpCN7Xek4ne-124" value="Create" style="rounded=0;whiteSpace=wrap;html=1;" vertex="1" parent="1">
          <mxGeometry x="444" y="298" width="60" height="30" as="geometry" />
        </mxCell>
        <mxCell id="FdVzbtgLcjpCN7Xek4ne-125" style="edgeStyle=orthogonalEdgeStyle;rounded=0;orthogonalLoop=1;jettySize=auto;html=1;entryX=0;entryY=0.5;entryDx=0;entryDy=0;" edge="1" parent="1" target="FdVzbtgLcjpCN7Xek4ne-124">
          <mxGeometry relative="1" as="geometry">
            <mxPoint x="424" y="338" as="sourcePoint" />
            <Array as="points">
              <mxPoint x="434" y="338" />
              <mxPoint x="434" y="313" />
            </Array>
          </mxGeometry>
        </mxCell>
        <mxCell id="FdVzbtgLcjpCN7Xek4ne-126" value="" style="edgeStyle=orthogonalEdgeStyle;rounded=0;orthogonalLoop=1;jettySize=auto;html=1;" edge="1" parent="1" source="FdVzbtgLcjpCN7Xek4ne-127" target="FdVzbtgLcjpCN7Xek4ne-133">
          <mxGeometry relative="1" as="geometry">
            <Array as="points">
              <mxPoint x="544" y="338" />
              <mxPoint x="544" y="320" />
            </Array>
          </mxGeometry>
        </mxCell>
        <mxCell id="FdVzbtgLcjpCN7Xek4ne-127" value="Read" style="rounded=0;whiteSpace=wrap;html=1;" vertex="1" parent="1">
          <mxGeometry x="444" y="328" width="60" height="30" as="geometry" />
        </mxCell>
        <mxCell id="FdVzbtgLcjpCN7Xek4ne-129" value="Update" style="rounded=0;whiteSpace=wrap;html=1;" vertex="1" parent="1">
          <mxGeometry x="444" y="358" width="60" height="30" as="geometry" />
        </mxCell>
        <mxCell id="FdVzbtgLcjpCN7Xek4ne-131" value="Delete" style="rounded=0;whiteSpace=wrap;html=1;" vertex="1" parent="1">
          <mxGeometry x="444" y="388" width="60" height="30" as="geometry" />
        </mxCell>
        <mxCell id="FdVzbtgLcjpCN7Xek4ne-132" value="" style="edgeStyle=orthogonalEdgeStyle;rounded=0;orthogonalLoop=1;jettySize=auto;html=1;entryX=0;entryY=0.5;entryDx=0;entryDy=0;" edge="1" parent="1">
          <mxGeometry relative="1" as="geometry">
            <mxPoint x="414" y="339" as="sourcePoint" />
            <mxPoint x="444" y="346" as="targetPoint" />
            <Array as="points">
              <mxPoint x="424" y="339" />
              <mxPoint x="424" y="346" />
            </Array>
          </mxGeometry>
        </mxCell>
        <mxCell id="FdVzbtgLcjpCN7Xek4ne-133" value="MySQL" style="outlineConnect=0;dashed=0;verticalLabelPosition=bottom;verticalAlign=top;align=center;html=1;shape=mxgraph.aws3.mysql_db_instance_2;fillColor=#2E73B8;gradientColor=none;" vertex="1" parent="1">
          <mxGeometry x="584" y="288" width="60" height="63" as="geometry" />
        </mxCell>
        <mxCell id="FdVzbtgLcjpCN7Xek4ne-137" value="" style="edgeStyle=orthogonalEdgeStyle;rounded=0;orthogonalLoop=1;jettySize=auto;html=1;" edge="1" parent="1" target="FdVzbtgLcjpCN7Xek4ne-133">
          <mxGeometry relative="1" as="geometry">
            <mxPoint x="504" y="363" as="sourcePoint" />
            <mxPoint x="584" y="406" as="targetPoint" />
            <Array as="points">
              <mxPoint x="570" y="363" />
              <mxPoint x="570" y="319" />
            </Array>
          </mxGeometry>
        </mxCell>
        <mxCell id="FdVzbtgLcjpCN7Xek4ne-138" value="" style="edgeStyle=orthogonalEdgeStyle;rounded=0;orthogonalLoop=1;jettySize=auto;html=1;exitX=1;exitY=0.5;exitDx=0;exitDy=0;" edge="1" parent="1" source="FdVzbtgLcjpCN7Xek4ne-122" target="FdVzbtgLcjpCN7Xek4ne-129">
          <mxGeometry relative="1" as="geometry">
            <mxPoint x="424" y="349" as="sourcePoint" />
            <mxPoint x="444" y="378" as="targetPoint" />
            <Array as="points">
              <mxPoint x="434" y="356" />
              <mxPoint x="434" y="378" />
            </Array>
          </mxGeometry>
        </mxCell>
        <mxCell id="FdVzbtgLcjpCN7Xek4ne-139" value="Demand microservice:&amp;nbsp;" style="text;html=1;align=center;verticalAlign=middle;resizable=0;points=[];autosize=1;strokeColor=none;fillColor=none;" vertex="1" parent="1">
          <mxGeometry x="-20" y="276" width="150" height="30" as="geometry" />
        </mxCell>
        <mxCell id="FdVzbtgLcjpCN7Xek4ne-169" value="" style="edgeStyle=orthogonalEdgeStyle;rounded=0;orthogonalLoop=1;jettySize=auto;html=1;" edge="1" parent="1" source="FdVzbtgLcjpCN7Xek4ne-141" target="FdVzbtgLcjpCN7Xek4ne-167">
          <mxGeometry relative="1" as="geometry" />
        </mxCell>
        <mxCell id="FdVzbtgLcjpCN7Xek4ne-141" value="http request" style="sketch=0;outlineConnect=0;fontColor=#232F3E;gradientColor=none;fillColor=#B0084D;strokeColor=none;dashed=0;verticalLabelPosition=bottom;verticalAlign=top;align=center;html=1;fontSize=12;fontStyle=0;aspect=fixed;pointerEvents=1;shape=mxgraph.aws4.http_notification;" vertex="1" parent="1">
          <mxGeometry x="-40" y="59" width="62" height="62" as="geometry" />
        </mxCell>
        <mxCell id="FdVzbtgLcjpCN7Xek4ne-142" style="edgeStyle=orthogonalEdgeStyle;rounded=0;orthogonalLoop=1;jettySize=auto;html=1;exitX=1;exitY=0.5;exitDx=0;exitDy=0;exitPerimeter=0;entryX=0;entryY=0.5;entryDx=0;entryDy=0;" edge="1" parent="1" source="FdVzbtgLcjpCN7Xek4ne-143" target="FdVzbtgLcjpCN7Xek4ne-145">
          <mxGeometry relative="1" as="geometry" />
        </mxCell>
        <mxCell id="FdVzbtgLcjpCN7Xek4ne-143" value=".Net" style="outlineConnect=0;dashed=0;verticalLabelPosition=bottom;verticalAlign=top;align=center;html=1;shape=mxgraph.aws3.android;fillColor=#115193;gradientColor=none;" vertex="1" parent="1">
          <mxGeometry x="130" y="59" width="53.5" height="62" as="geometry" />
        </mxCell>
        <mxCell id="FdVzbtgLcjpCN7Xek4ne-144" value="" style="edgeStyle=orthogonalEdgeStyle;rounded=0;orthogonalLoop=1;jettySize=auto;html=1;" edge="1" parent="1" source="FdVzbtgLcjpCN7Xek4ne-145" target="FdVzbtgLcjpCN7Xek4ne-148">
          <mxGeometry relative="1" as="geometry" />
        </mxCell>
        <mxCell id="FdVzbtgLcjpCN7Xek4ne-145" value="Data validation" style="rounded=0;whiteSpace=wrap;html=1;" vertex="1" parent="1">
          <mxGeometry x="210" y="62" width="90" height="56" as="geometry" />
        </mxCell>
        <mxCell id="FdVzbtgLcjpCN7Xek4ne-146" value="" style="edgeStyle=orthogonalEdgeStyle;rounded=0;orthogonalLoop=1;jettySize=auto;html=1;" edge="1" parent="1" source="FdVzbtgLcjpCN7Xek4ne-148" target="FdVzbtgLcjpCN7Xek4ne-157">
          <mxGeometry relative="1" as="geometry" />
        </mxCell>
        <mxCell id="FdVzbtgLcjpCN7Xek4ne-147" value="" style="edgeStyle=orthogonalEdgeStyle;rounded=0;orthogonalLoop=1;jettySize=auto;html=1;exitX=0.996;exitY=0.33;exitDx=0;exitDy=0;exitPerimeter=0;" edge="1" parent="1" source="FdVzbtgLcjpCN7Xek4ne-148" target="FdVzbtgLcjpCN7Xek4ne-157">
          <mxGeometry relative="1" as="geometry">
            <Array as="points">
              <mxPoint x="430" y="90" />
              <mxPoint x="450" y="90" />
              <mxPoint x="450" y="112" />
              <mxPoint x="490" y="112" />
            </Array>
          </mxGeometry>
        </mxCell>
        <mxCell id="FdVzbtgLcjpCN7Xek4ne-148" value="Data processing" style="shape=image;html=1;verticalAlign=top;verticalLabelPosition=bottom;labelBackgroundColor=#ffffff;imageAspect=0;aspect=fixed;image=https://cdn1.iconfinder.com/data/icons/software-engineering-and-video-gaming/512/481_Analysis_data_datum_processing_reporting_Data_Science_Fabrication_Lab-128.png" vertex="1" parent="1">
          <mxGeometry x="330" y="40" width="100" height="100" as="geometry" />
        </mxCell>
        <mxCell id="FdVzbtgLcjpCN7Xek4ne-150" value="Create" style="rounded=0;whiteSpace=wrap;html=1;" vertex="1" parent="1">
          <mxGeometry x="460" y="32" width="60" height="30" as="geometry" />
        </mxCell>
        <mxCell id="FdVzbtgLcjpCN7Xek4ne-151" style="edgeStyle=orthogonalEdgeStyle;rounded=0;orthogonalLoop=1;jettySize=auto;html=1;entryX=0;entryY=0.5;entryDx=0;entryDy=0;" edge="1" parent="1" target="FdVzbtgLcjpCN7Xek4ne-150">
          <mxGeometry relative="1" as="geometry">
            <mxPoint x="440" y="72" as="sourcePoint" />
            <Array as="points">
              <mxPoint x="450" y="72" />
              <mxPoint x="450" y="47" />
            </Array>
          </mxGeometry>
        </mxCell>
        <mxCell id="FdVzbtgLcjpCN7Xek4ne-153" value="Read" style="rounded=0;whiteSpace=wrap;html=1;" vertex="1" parent="1">
          <mxGeometry x="460" y="62" width="60" height="30" as="geometry" />
        </mxCell>
        <mxCell id="FdVzbtgLcjpCN7Xek4ne-154" value="" style="edgeStyle=orthogonalEdgeStyle;rounded=0;orthogonalLoop=1;jettySize=auto;html=1;" edge="1" parent="1" source="FdVzbtgLcjpCN7Xek4ne-155" target="FdVzbtgLcjpCN7Xek4ne-160">
          <mxGeometry relative="1" as="geometry">
            <Array as="points">
              <mxPoint x="540" y="107" />
              <mxPoint x="540" y="150" />
            </Array>
          </mxGeometry>
        </mxCell>
        <mxCell id="FdVzbtgLcjpCN7Xek4ne-155" value="Update" style="rounded=0;whiteSpace=wrap;html=1;" vertex="1" parent="1">
          <mxGeometry x="460" y="92" width="60" height="30" as="geometry" />
        </mxCell>
        <mxCell id="FdVzbtgLcjpCN7Xek4ne-156" value="" style="edgeStyle=orthogonalEdgeStyle;rounded=0;orthogonalLoop=1;jettySize=auto;html=1;" edge="1" parent="1" source="FdVzbtgLcjpCN7Xek4ne-157" target="FdVzbtgLcjpCN7Xek4ne-160">
          <mxGeometry relative="1" as="geometry">
            <Array as="points">
              <mxPoint x="490" y="172" />
            </Array>
          </mxGeometry>
        </mxCell>
        <mxCell id="FdVzbtgLcjpCN7Xek4ne-157" value="Delete" style="rounded=0;whiteSpace=wrap;html=1;" vertex="1" parent="1">
          <mxGeometry x="460" y="122" width="60" height="30" as="geometry" />
        </mxCell>
        <mxCell id="FdVzbtgLcjpCN7Xek4ne-158" value="" style="edgeStyle=orthogonalEdgeStyle;rounded=0;orthogonalLoop=1;jettySize=auto;html=1;entryX=0;entryY=0.5;entryDx=0;entryDy=0;" edge="1" parent="1">
          <mxGeometry relative="1" as="geometry">
            <mxPoint x="430" y="73" as="sourcePoint" />
            <mxPoint x="460" y="80" as="targetPoint" />
            <Array as="points">
              <mxPoint x="440" y="73" />
              <mxPoint x="440" y="80" />
            </Array>
          </mxGeometry>
        </mxCell>
        <mxCell id="FdVzbtgLcjpCN7Xek4ne-160" value="MongoDB" style="image;aspect=fixed;html=1;points=[];align=center;fontSize=12;image=img/lib/azure2/databases/Managed_Database.svg;" vertex="1" parent="1">
          <mxGeometry x="620" y="68" width="68" height="64" as="geometry" />
        </mxCell>
        <mxCell id="FdVzbtgLcjpCN7Xek4ne-161" value="" style="edgeStyle=orthogonalEdgeStyle;rounded=0;orthogonalLoop=1;jettySize=auto;html=1;entryX=0.024;entryY=0.209;entryDx=0;entryDy=0;entryPerimeter=0;" edge="1" parent="1" target="FdVzbtgLcjpCN7Xek4ne-160">
          <mxGeometry relative="1" as="geometry">
            <mxPoint x="519.5" y="88.25" as="sourcePoint" />
            <mxPoint x="599.5" y="65.25" as="targetPoint" />
          </mxGeometry>
        </mxCell>
        <mxCell id="FdVzbtgLcjpCN7Xek4ne-162" value="" style="edgeStyle=orthogonalEdgeStyle;rounded=0;orthogonalLoop=1;jettySize=auto;html=1;entryX=0.012;entryY=0.297;entryDx=0;entryDy=0;entryPerimeter=0;" edge="1" parent="1" target="FdVzbtgLcjpCN7Xek4ne-160">
          <mxGeometry relative="1" as="geometry">
            <mxPoint x="519" y="35" as="sourcePoint" />
            <mxPoint x="599" y="42" as="targetPoint" />
            <Array as="points">
              <mxPoint x="519" y="36" />
              <mxPoint x="580" y="36" />
              <mxPoint x="580" y="137" />
            </Array>
          </mxGeometry>
        </mxCell>
        <mxCell id="FdVzbtgLcjpCN7Xek4ne-164" value="" style="edgeStyle=orthogonalEdgeStyle;rounded=0;orthogonalLoop=1;jettySize=auto;html=1;exitX=1;exitY=0.5;exitDx=0;exitDy=0;" edge="1" parent="1" source="FdVzbtgLcjpCN7Xek4ne-148" target="FdVzbtgLcjpCN7Xek4ne-155">
          <mxGeometry relative="1" as="geometry">
            <mxPoint x="440" y="83" as="sourcePoint" />
            <mxPoint x="460" y="112" as="targetPoint" />
            <Array as="points">
              <mxPoint x="450" y="90" />
              <mxPoint x="450" y="112" />
            </Array>
          </mxGeometry>
        </mxCell>
        <mxCell id="FdVzbtgLcjpCN7Xek4ne-165" value="Stock microservice" style="text;html=1;align=center;verticalAlign=middle;resizable=0;points=[];autosize=1;strokeColor=none;fillColor=none;" vertex="1" parent="1">
          <mxGeometry x="-20" y="10" width="120" height="30" as="geometry" />
        </mxCell>
        <mxCell id="FdVzbtgLcjpCN7Xek4ne-166" value="" style="edgeStyle=orthogonalEdgeStyle;rounded=0;orthogonalLoop=1;jettySize=auto;html=1;" edge="1" parent="1" target="FdVzbtgLcjpCN7Xek4ne-133">
          <mxGeometry relative="1" as="geometry">
            <mxPoint x="504" y="404" as="sourcePoint" />
            <mxPoint x="614" y="392" as="targetPoint" />
            <Array as="points">
              <mxPoint x="570" y="404" />
              <mxPoint x="570" y="319" />
            </Array>
          </mxGeometry>
        </mxCell>
        <mxCell id="FdVzbtgLcjpCN7Xek4ne-168" value="" style="edgeStyle=orthogonalEdgeStyle;rounded=0;orthogonalLoop=1;jettySize=auto;html=1;" edge="1" parent="1" source="FdVzbtgLcjpCN7Xek4ne-167">
          <mxGeometry relative="1" as="geometry">
            <mxPoint x="130" y="90" as="targetPoint" />
          </mxGeometry>
        </mxCell>
        <mxCell id="FdVzbtgLcjpCN7Xek4ne-167" value="" style="verticalLabelPosition=bottom;html=1;verticalAlign=top;align=center;strokeColor=none;fillColor=#00BEF2;shape=mxgraph.azure.azure_website;pointerEvents=1;" vertex="1" parent="1">
          <mxGeometry x="60" y="65" width="50" height="50" as="geometry" />
        </mxCell>
        <mxCell id="FdVzbtgLcjpCN7Xek4ne-173" value="" style="edgeStyle=orthogonalEdgeStyle;rounded=0;orthogonalLoop=1;jettySize=auto;html=1;" edge="1" parent="1" source="FdVzbtgLcjpCN7Xek4ne-170" target="FdVzbtgLcjpCN7Xek4ne-117">
          <mxGeometry relative="1" as="geometry" />
        </mxCell>
        <mxCell id="FdVzbtgLcjpCN7Xek4ne-170" value="" style="verticalLabelPosition=bottom;html=1;verticalAlign=top;align=center;strokeColor=none;fillColor=#00BEF2;shape=mxgraph.azure.azure_website;pointerEvents=1;" vertex="1" parent="1">
          <mxGeometry x="40" y="331" width="50" height="50" as="geometry" />
        </mxCell>
        <mxCell id="FdVzbtgLcjpCN7Xek4ne-176" value="AWS SES - Email service" style="outlineConnect=0;dashed=0;verticalLabelPosition=bottom;verticalAlign=top;align=center;html=1;shape=mxgraph.aws3.ses;fillColor=#D9A741;gradientColor=none;" vertex="1" parent="1">
          <mxGeometry x="-640" y="92" width="79.5" height="93" as="geometry" />
        </mxCell>
        <mxCell id="FdVzbtgLcjpCN7Xek4ne-177" value="Notification Microservice" style="text;strokeColor=none;align=center;fillColor=none;html=1;verticalAlign=middle;whiteSpace=wrap;rounded=0;" vertex="1" parent="1">
          <mxGeometry x="-395" y="45" width="160" height="30" as="geometry" />
        </mxCell>
        <mxCell id="FdVzbtgLcjpCN7Xek4ne-249" value="" style="edgeStyle=orthogonalEdgeStyle;rounded=0;orthogonalLoop=1;jettySize=auto;html=1;" edge="1" parent="1" source="FdVzbtgLcjpCN7Xek4ne-250" target="FdVzbtgLcjpCN7Xek4ne-272">
          <mxGeometry relative="1" as="geometry" />
        </mxCell>
        <mxCell id="FdVzbtgLcjpCN7Xek4ne-250" value="http request" style="sketch=0;outlineConnect=0;fontColor=#232F3E;gradientColor=none;fillColor=#B0084D;strokeColor=none;dashed=0;verticalLabelPosition=bottom;verticalAlign=top;align=center;html=1;fontSize=12;fontStyle=0;aspect=fixed;pointerEvents=1;shape=mxgraph.aws4.http_notification;" vertex="1" parent="1">
          <mxGeometry x="-1030" y="390" width="56" height="56" as="geometry" />
        </mxCell>
        <mxCell id="FdVzbtgLcjpCN7Xek4ne-251" value="" style="edgeStyle=orthogonalEdgeStyle;rounded=0;orthogonalLoop=1;jettySize=auto;html=1;" edge="1" parent="1" source="FdVzbtgLcjpCN7Xek4ne-252" target="FdVzbtgLcjpCN7Xek4ne-254">
          <mxGeometry relative="1" as="geometry" />
        </mxCell>
        <mxCell id="FdVzbtgLcjpCN7Xek4ne-252" value=".Net" style="outlineConnect=0;dashed=0;verticalLabelPosition=bottom;verticalAlign=top;align=center;html=1;shape=mxgraph.aws3.android;fillColor=#115193;gradientColor=none;" vertex="1" parent="1">
          <mxGeometry x="-880" y="387" width="60" height="62" as="geometry" />
        </mxCell>
        <mxCell id="FdVzbtgLcjpCN7Xek4ne-253" value="" style="edgeStyle=orthogonalEdgeStyle;rounded=0;orthogonalLoop=1;jettySize=auto;html=1;" edge="1" parent="1" source="FdVzbtgLcjpCN7Xek4ne-254" target="FdVzbtgLcjpCN7Xek4ne-257">
          <mxGeometry relative="1" as="geometry" />
        </mxCell>
        <mxCell id="FdVzbtgLcjpCN7Xek4ne-254" value="Data validation" style="rounded=0;whiteSpace=wrap;html=1;" vertex="1" parent="1">
          <mxGeometry x="-796" y="390" width="90" height="56" as="geometry" />
        </mxCell>
        <mxCell id="FdVzbtgLcjpCN7Xek4ne-255" value="" style="edgeStyle=orthogonalEdgeStyle;rounded=0;orthogonalLoop=1;jettySize=auto;html=1;" edge="1" parent="1" source="FdVzbtgLcjpCN7Xek4ne-257" target="FdVzbtgLcjpCN7Xek4ne-264">
          <mxGeometry relative="1" as="geometry" />
        </mxCell>
        <mxCell id="FdVzbtgLcjpCN7Xek4ne-256" value="" style="edgeStyle=orthogonalEdgeStyle;rounded=0;orthogonalLoop=1;jettySize=auto;html=1;exitX=0.996;exitY=0.33;exitDx=0;exitDy=0;exitPerimeter=0;" edge="1" parent="1" source="FdVzbtgLcjpCN7Xek4ne-257" target="FdVzbtgLcjpCN7Xek4ne-264">
          <mxGeometry relative="1" as="geometry">
            <Array as="points">
              <mxPoint x="-576" y="418" />
              <mxPoint x="-556" y="418" />
              <mxPoint x="-556" y="440" />
              <mxPoint x="-516" y="440" />
            </Array>
          </mxGeometry>
        </mxCell>
        <mxCell id="FdVzbtgLcjpCN7Xek4ne-257" value="Data processing" style="shape=image;html=1;verticalAlign=top;verticalLabelPosition=bottom;labelBackgroundColor=#ffffff;imageAspect=0;aspect=fixed;image=https://cdn1.iconfinder.com/data/icons/software-engineering-and-video-gaming/512/481_Analysis_data_datum_processing_reporting_Data_Science_Fabrication_Lab-128.png" vertex="1" parent="1">
          <mxGeometry x="-676" y="368" width="100" height="100" as="geometry" />
        </mxCell>
        <mxCell id="FdVzbtgLcjpCN7Xek4ne-258" value="" style="edgeStyle=orthogonalEdgeStyle;rounded=0;orthogonalLoop=1;jettySize=auto;html=1;" edge="1" parent="1" source="FdVzbtgLcjpCN7Xek4ne-259" target="FdVzbtgLcjpCN7Xek4ne-266">
          <mxGeometry relative="1" as="geometry" />
        </mxCell>
        <mxCell id="FdVzbtgLcjpCN7Xek4ne-259" value="Create" style="rounded=0;whiteSpace=wrap;html=1;" vertex="1" parent="1">
          <mxGeometry x="-546" y="360" width="60" height="30" as="geometry" />
        </mxCell>
        <mxCell id="FdVzbtgLcjpCN7Xek4ne-260" style="edgeStyle=orthogonalEdgeStyle;rounded=0;orthogonalLoop=1;jettySize=auto;html=1;entryX=0;entryY=0.5;entryDx=0;entryDy=0;" edge="1" parent="1" target="FdVzbtgLcjpCN7Xek4ne-259">
          <mxGeometry relative="1" as="geometry">
            <mxPoint x="-566" y="400" as="sourcePoint" />
            <Array as="points">
              <mxPoint x="-556" y="400" />
              <mxPoint x="-556" y="375" />
            </Array>
          </mxGeometry>
        </mxCell>
        <mxCell id="FdVzbtgLcjpCN7Xek4ne-261" value="" style="edgeStyle=orthogonalEdgeStyle;rounded=0;orthogonalLoop=1;jettySize=auto;html=1;" edge="1" parent="1" source="FdVzbtgLcjpCN7Xek4ne-262" target="FdVzbtgLcjpCN7Xek4ne-266">
          <mxGeometry relative="1" as="geometry">
            <Array as="points">
              <mxPoint x="-446" y="400" />
              <mxPoint x="-446" y="382" />
            </Array>
          </mxGeometry>
        </mxCell>
        <mxCell id="FdVzbtgLcjpCN7Xek4ne-262" value="Read" style="rounded=0;whiteSpace=wrap;html=1;" vertex="1" parent="1">
          <mxGeometry x="-546" y="390" width="60" height="30" as="geometry" />
        </mxCell>
        <mxCell id="FdVzbtgLcjpCN7Xek4ne-263" value="Update" style="rounded=0;whiteSpace=wrap;html=1;" vertex="1" parent="1">
          <mxGeometry x="-546" y="420" width="60" height="30" as="geometry" />
        </mxCell>
        <mxCell id="FdVzbtgLcjpCN7Xek4ne-264" value="Delete" style="rounded=0;whiteSpace=wrap;html=1;" vertex="1" parent="1">
          <mxGeometry x="-546" y="450" width="60" height="30" as="geometry" />
        </mxCell>
        <mxCell id="FdVzbtgLcjpCN7Xek4ne-265" value="" style="edgeStyle=orthogonalEdgeStyle;rounded=0;orthogonalLoop=1;jettySize=auto;html=1;entryX=0;entryY=0.5;entryDx=0;entryDy=0;" edge="1" parent="1">
          <mxGeometry relative="1" as="geometry">
            <mxPoint x="-576" y="401" as="sourcePoint" />
            <mxPoint x="-546" y="408" as="targetPoint" />
            <Array as="points">
              <mxPoint x="-566" y="401" />
              <mxPoint x="-566" y="408" />
            </Array>
          </mxGeometry>
        </mxCell>
        <mxCell id="FdVzbtgLcjpCN7Xek4ne-266" value="MySQL" style="outlineConnect=0;dashed=0;verticalLabelPosition=bottom;verticalAlign=top;align=center;html=1;shape=mxgraph.aws3.mysql_db_instance_2;fillColor=#2E73B8;gradientColor=none;" vertex="1" parent="1">
          <mxGeometry x="-406" y="350" width="60" height="63" as="geometry" />
        </mxCell>
        <mxCell id="FdVzbtgLcjpCN7Xek4ne-267" value="" style="edgeStyle=orthogonalEdgeStyle;rounded=0;orthogonalLoop=1;jettySize=auto;html=1;" edge="1" parent="1" target="FdVzbtgLcjpCN7Xek4ne-266">
          <mxGeometry relative="1" as="geometry">
            <mxPoint x="-486" y="425" as="sourcePoint" />
            <mxPoint x="-406" y="468" as="targetPoint" />
            <Array as="points">
              <mxPoint x="-420" y="425" />
              <mxPoint x="-420" y="381" />
            </Array>
          </mxGeometry>
        </mxCell>
        <mxCell id="FdVzbtgLcjpCN7Xek4ne-268" value="" style="edgeStyle=orthogonalEdgeStyle;rounded=0;orthogonalLoop=1;jettySize=auto;html=1;exitX=1;exitY=0.5;exitDx=0;exitDy=0;" edge="1" parent="1" source="FdVzbtgLcjpCN7Xek4ne-257" target="FdVzbtgLcjpCN7Xek4ne-263">
          <mxGeometry relative="1" as="geometry">
            <mxPoint x="-566" y="411" as="sourcePoint" />
            <mxPoint x="-546" y="440" as="targetPoint" />
            <Array as="points">
              <mxPoint x="-556" y="418" />
              <mxPoint x="-556" y="440" />
            </Array>
          </mxGeometry>
        </mxCell>
        <mxCell id="FdVzbtgLcjpCN7Xek4ne-269" value="Supplier microservice" style="text;html=1;align=center;verticalAlign=middle;resizable=0;points=[];autosize=1;strokeColor=none;fillColor=none;" vertex="1" parent="1">
          <mxGeometry x="-1005" y="338" width="140" height="30" as="geometry" />
        </mxCell>
        <mxCell id="FdVzbtgLcjpCN7Xek4ne-270" value="" style="edgeStyle=orthogonalEdgeStyle;rounded=0;orthogonalLoop=1;jettySize=auto;html=1;" edge="1" parent="1" target="FdVzbtgLcjpCN7Xek4ne-266">
          <mxGeometry relative="1" as="geometry">
            <mxPoint x="-486" y="466" as="sourcePoint" />
            <mxPoint x="-376" y="454" as="targetPoint" />
            <Array as="points">
              <mxPoint x="-420" y="466" />
              <mxPoint x="-420" y="381" />
            </Array>
          </mxGeometry>
        </mxCell>
        <mxCell id="FdVzbtgLcjpCN7Xek4ne-271" value="" style="edgeStyle=orthogonalEdgeStyle;rounded=0;orthogonalLoop=1;jettySize=auto;html=1;" edge="1" parent="1" source="FdVzbtgLcjpCN7Xek4ne-272" target="FdVzbtgLcjpCN7Xek4ne-252">
          <mxGeometry relative="1" as="geometry" />
        </mxCell>
        <mxCell id="FdVzbtgLcjpCN7Xek4ne-272" value="" style="verticalLabelPosition=bottom;html=1;verticalAlign=top;align=center;strokeColor=none;fillColor=#00BEF2;shape=mxgraph.azure.azure_website;pointerEvents=1;" vertex="1" parent="1">
          <mxGeometry x="-950" y="393" width="50" height="50" as="geometry" />
        </mxCell>
        <mxCell id="FdVzbtgLcjpCN7Xek4ne-275" value="" style="edgeStyle=orthogonalEdgeStyle;rounded=0;orthogonalLoop=1;jettySize=auto;html=1;" edge="1" parent="1" source="FdVzbtgLcjpCN7Xek4ne-274" target="FdVzbtgLcjpCN7Xek4ne-177">
          <mxGeometry relative="1" as="geometry" />
        </mxCell>
        <mxCell id="FdVzbtgLcjpCN7Xek4ne-274" value="" style="shape=collate;html=1;" vertex="1" parent="1">
          <mxGeometry x="-526" y="40" width="40" height="40" as="geometry" />
        </mxCell>
        <mxCell id="FdVzbtgLcjpCN7Xek4ne-276" value="Event trigger (By Date)" style="text;strokeColor=none;align=center;fillColor=none;html=1;verticalAlign=middle;whiteSpace=wrap;rounded=0;" vertex="1" parent="1">
          <mxGeometry x="-566" y="80" width="120" height="30" as="geometry" />
        </mxCell>
      </root>
    </mxGraphModel>
  </diagram>
</mxfile>
